<?xml version="1.0" encoding="UTF-8" standalone="no"?>
<!DOCTYPE svg PUBLIC "-//W3C//DTD SVG 1.1//EN" "http://www.w3.org/Graphics/SVG/1.1/DTD/svg11.dtd">
<svg width="100%" height="100%" viewBox="0 0 300 108" version="1.1" xmlns="http://www.w3.org/2000/svg" xmlns:xlink="http://www.w3.org/1999/xlink" xml:space="preserve" xmlns:serif="http://www.serif.com/" style="fill-rule:evenodd;clip-rule:evenodd;stroke-linejoin:round;stroke-miterlimit:2;">
    <g transform="matrix(1,0,0,1,-697.196481,-783.993032)">
        <g transform="matrix(4.166667,0,0,4.166667,0,0)">
            <g transform="matrix(0.043362,0,0,0.043362,160.071437,179.999318)">
                <g transform="matrix(1,0,0,1,757.2681,669.716)">
                    <path d="M0,-0.442L5.291,-0.442L5.291,14.606C1.433,17.857 -3.914,19.511 -9.315,19.511C-21.165,19.511 -29.873,11.187 -29.873,-0.221C-29.873,-11.631 -21.165,-19.953 -9.205,-19.953C-3.088,-19.953 2.093,-17.914 5.62,-14L2.203,-10.583C-0.993,-13.669 -4.631,-15.048 -8.984,-15.048C-17.913,-15.048 -24.363,-8.819 -24.363,-0.221C-24.363,8.266 -17.913,14.606 -9.039,14.606C-5.788,14.606 -2.757,13.888 0,12.125L0,-0.442Z" style="fill:white;fill-rule:nonzero;"/>
                </g>
                <g transform="matrix(1,0,0,1,805.2426,654.9978)">
                    <path d="M0,28.993L0,33.787L-27.999,33.787L-27.999,-4.794L-0.773,-4.794L-0.773,0.001L-22.487,0.001L-22.487,11.85L-3.141,11.85L-3.141,16.537L-22.487,16.537L-22.487,28.993L0,28.993Z" style="fill:white;fill-rule:nonzero;"/>
                </g>
                <g transform="matrix(1,0,0,1,851.5084,688.7853)">
                    <path d="M0,-38.581L0,0L-4.521,0L-27.668,-28.771L-27.668,0L-33.179,0L-33.179,-38.581L-28.661,-38.581L-5.512,-9.81L-5.512,-38.581L0,-38.581Z" style="fill:white;fill-rule:nonzero;"/>
                </g>
                <g transform="matrix(1,0,0,1,895.2404,654.9978)">
                    <path d="M0,28.993L0,33.787L-27.999,33.787L-27.999,-4.794L-0.773,-4.794L-0.773,0.001L-22.487,0.001L-22.487,11.85L-3.141,11.85L-3.141,16.537L-22.487,16.537L-22.487,28.993L0,28.993Z" style="fill:white;fill-rule:nonzero;"/>
                </g>
                <g transform="matrix(1,0,0,1,933.9547,675.3387)">
                    <path d="M0,-11.687C0,-17.199 -3.693,-20.34 -10.748,-20.34L-20.116,-20.34L-20.116,-2.979L-10.748,-2.979C-3.693,-2.979 0,-6.175 0,-11.687M0.166,13.447L-8.156,1.597C-8.929,1.652 -9.755,1.708 -10.582,1.708L-20.116,1.708L-20.116,13.447L-25.628,13.447L-25.628,-25.134L-10.582,-25.134C-0.552,-25.134 5.512,-20.064 5.512,-11.687C5.512,-5.734 2.426,-1.436 -2.976,0.493L6.174,13.447L0.166,13.447Z" style="fill:white;fill-rule:nonzero;"/>
                </g>
                <g transform="matrix(1,0,0,1,975.2054,664.2598)">
                    <path d="M0,10.471L-8.322,-8.433L-16.646,10.471L0,10.471ZM1.929,14.879L-18.575,14.879L-22.818,24.526L-28.495,24.526L-11.024,-14.055L-5.567,-14.055L11.96,24.526L6.172,24.526L1.929,14.879Z" style="fill:white;fill-rule:nonzero;"/>
                </g>
                <g transform="matrix(1,0,0,1,1023.6858,683.9917)">
                    <path d="M0,-28.993L-13.227,-28.993L-13.227,-33.787L18.686,-33.787L18.686,-28.993L5.457,-28.993L5.457,4.794L0,4.794L0,-28.993Z" style="fill:white;fill-rule:nonzero;"/>
                </g>
                <g transform="matrix(1,0,0,1,1051.4845,667.2922)">
                    <path d="M0,4.847L0,-17.088L5.512,-17.088L5.512,4.629C5.512,13.171 9.426,17.03 16.37,17.03C23.315,17.03 27.281,13.171 27.281,4.629L27.281,-17.088L32.628,-17.088L32.628,4.847C32.628,16.036 26.511,21.935 16.315,21.935C6.172,21.935 0,16.036 0,4.847" style="fill:white;fill-rule:nonzero;"/>
                </g>
                <g transform="matrix(1,0,0,1,1146.5388,654.9978)">
                    <path d="M0,28.993L0,33.787L-27.999,33.787L-27.999,-4.794L-0.773,-4.794L-0.773,0.001L-22.487,0.001L-22.487,11.85L-3.141,11.85L-3.141,16.537L-22.487,16.537L-22.487,28.993L0,28.993Z" style="fill:white;fill-rule:nonzero;"/>
                </g>
                <g transform="matrix(1,0,0,1,1159.6254,688.7853)">
                    <path d="M0,-38.581L5.512,-38.581L5.512,-4.794L26.401,-4.794L26.401,0L0,0L0,-38.581Z" style="fill:white;fill-rule:nonzero;"/>
                </g>
                <g transform="matrix(1,0,0,1,1224.5149,654.9978)">
                    <path d="M0,28.993L0,33.787L-27.999,33.787L-27.999,-4.794L-0.773,-4.794L-0.773,0.001L-22.487,0.001L-22.487,11.85L-3.141,11.85L-3.141,16.537L-22.487,16.537L-22.487,28.993L0,28.993Z" style="fill:white;fill-rule:nonzero;"/>
                </g>
                <g transform="matrix(1,0,0,1,1234.2924,669.4948)">
                    <path d="M0,0C0,-11.41 8.711,-19.732 20.449,-19.732C26.403,-19.732 31.584,-17.692 35.111,-13.723L31.528,-10.251C28.551,-13.392 24.913,-14.827 20.67,-14.827C11.962,-14.827 5.512,-8.543 5.512,0C5.512,8.543 11.962,14.827 20.67,14.827C24.913,14.827 28.551,13.337 31.528,10.196L35.111,13.668C31.584,17.637 26.403,19.732 20.394,19.732C8.711,19.732 0,11.408 0,0" style="fill:white;fill-rule:nonzero;"/>
                </g>
                <g transform="matrix(1,0,0,1,1288.6594,683.9917)">
                    <path d="M0,-28.993L-13.227,-28.993L-13.227,-33.787L18.686,-33.787L18.686,-28.993L5.457,-28.993L5.457,4.794L0,4.794L0,-28.993Z" style="fill:white;fill-rule:nonzero;"/>
                </g>
                <g transform="matrix(1,0,0,1,1343.1346,675.3387)">
                    <path d="M0,-11.687C0,-17.199 -3.693,-20.34 -10.748,-20.34L-20.116,-20.34L-20.116,-2.979L-10.748,-2.979C-3.693,-2.979 0,-6.175 0,-11.687M0.166,13.447L-8.156,1.597C-8.929,1.652 -9.755,1.708 -10.582,1.708L-20.116,1.708L-20.116,13.447L-25.628,13.447L-25.628,-25.134L-10.582,-25.134C-0.55,-25.134 5.512,-20.064 5.512,-11.687C5.512,-5.734 2.426,-1.436 -2.976,0.493L6.174,13.447L0.166,13.447Z" style="fill:white;fill-rule:nonzero;"/>
                </g>
                <g transform="matrix(1,0,0,1,0,367.212)">
                    <rect x="1361.733" y="282.992" width="5.512" height="38.581" style="fill:white;"/>
                </g>
                <g transform="matrix(1,0,0,1,1379.8231,669.4948)">
                    <path d="M0,0C0,-11.41 8.708,-19.732 20.447,-19.732C26.401,-19.732 31.581,-17.692 35.109,-13.723L31.526,-10.251C28.548,-13.392 24.911,-14.827 20.668,-14.827C11.96,-14.827 5.51,-8.543 5.51,0C5.51,8.543 11.96,14.827 20.668,14.827C24.911,14.827 28.548,13.337 31.526,10.196L35.109,13.668C31.581,17.637 26.401,19.732 20.392,19.732C8.708,19.732 0,11.408 0,0" style="fill:white;fill-rule:nonzero;"/>
                </g>
                <g transform="matrix(1,0,0,1,0,367.212)">
                    <rect x="1426.97" y="282.992" width="5.512" height="38.581" style="fill:white;"/>
                </g>
                <g transform="matrix(1,0,0,1,1464.1296,654.9978)">
                    <path d="M0,28.993C9.534,28.993 15.653,23.15 15.653,14.497C15.653,5.844 9.534,0.001 0,0.001L-10.417,0.001L-10.417,28.993L0,28.993ZM-15.929,-4.794L0.329,-4.794C12.73,-4.794 21.165,3.032 21.165,14.497C21.165,25.96 12.73,33.787 0.329,33.787L-15.929,33.787L-15.929,-4.794Z" style="fill:white;fill-rule:nonzero;"/>
                </g>
                <g transform="matrix(1,0,0,1,1519.9891,664.2598)">
                    <path d="M0,10.471L-8.322,-8.433L-16.646,10.471L0,10.471ZM1.929,14.879L-18.575,14.879L-22.818,24.526L-28.495,24.526L-11.024,-14.055L-5.567,-14.055L11.96,24.526L6.172,24.526L1.929,14.879Z" style="fill:white;fill-rule:nonzero;"/>
                </g>
                <g transform="matrix(1,0,0,1,1557.7676,654.9978)">
                    <path d="M0,28.993C9.534,28.993 15.653,23.15 15.653,14.497C15.653,5.844 9.534,0.001 0,0.001L-10.417,0.001L-10.417,28.993L0,28.993ZM-15.929,-4.794L0.331,-4.794C12.73,-4.794 21.165,3.032 21.165,14.497C21.165,25.96 12.73,33.787 0.331,33.787L-15.929,33.787L-15.929,-4.794Z" style="fill:white;fill-rule:nonzero;"/>
                </g>
                <g transform="matrix(1,0,0,1,610.5585,409.2937)">
                    <path d="M0,152.421C2.481,152.421 4.456,153.326 5.928,155.13C7.393,156.942 7.79,159.084 7.111,161.567L2.033,185.615C1.577,188.104 0.279,190.246 -1.863,192.052C-4.012,193.862 -6.325,194.762 -8.807,194.762L-157.505,194.762C-159.993,194.762 -161.965,193.862 -163.433,192.052C-164.905,190.246 -165.412,188.104 -164.956,185.615L-118.213,-33.197C-117.764,-35.678 -116.466,-37.822 -114.318,-39.632C-112.174,-41.436 -109.862,-42.341 -107.374,-42.341L38.613,-42.341C41.094,-42.341 43.069,-41.436 44.541,-39.632C46.006,-37.822 46.515,-35.678 46.064,-33.197L40.645,-9.147C40.19,-6.661 38.894,-4.516 36.75,-2.712C34.601,-0.903 32.29,-0.003 29.806,-0.003L-79.6,-0.003L-91.116,53.854L10.839,53.854C13.321,53.854 15.241,54.759 16.597,56.563C17.951,58.375 18.402,60.517 17.951,63L12.869,87.048C12.416,89.537 11.06,91.679 8.807,93.485C6.546,95.295 4.174,96.195 1.693,96.195L-100.262,96.195L-112.115,152.421L0,152.421Z" style="fill:white;fill-rule:nonzero;"/>
                </g>
                <g transform="matrix(1,0,0,1,816.8318,433.681)">
                    <path d="M0,161.228C-0.453,163.716 -1.751,165.858 -3.895,167.665C-6.044,169.474 -8.356,170.374 -10.837,170.374L-36.58,170.374C-39.069,170.374 -41.043,169.474 -42.508,167.665C-43.98,165.858 -44.487,163.716 -44.031,161.228L-25.741,75.193C-22.809,61.645 -23.655,50.806 -28.283,42.678C-32.913,34.548 -41.778,30.483 -54.871,30.483C-66.842,30.483 -77.116,34.548 -85.695,42.678C-94.279,50.806 -100.037,61.645 -102.969,75.193L-121.259,161.228C-121.715,163.716 -123.013,165.858 -125.155,167.665C-127.303,169.474 -129.617,170.374 -132.099,170.374L-157.842,170.374C-160.328,170.374 -162.302,169.474 -163.77,167.665C-165.24,165.858 -165.749,163.716 -165.293,161.228L-131.761,3.386C-131.31,0.902 -129.955,-1.239 -127.696,-3.051C-125.441,-4.856 -123.071,-5.76 -120.583,-5.76L-94.839,-5.76C-92.358,-5.76 -90.437,-4.856 -89.081,-3.051C-87.728,-1.239 -87.277,0.902 -87.728,3.386L-89.421,11.176C-83.551,4.858 -76.496,-0.112 -68.252,-3.728C-60.01,-7.337 -50.468,-9.146 -39.629,-9.146C-27.662,-9.146 -17.39,-6.997 -8.807,-2.712C-0.226,1.581 6.49,7.339 11.349,14.562C16.202,21.792 19.309,30.201 20.662,39.799C22.018,49.399 21.562,59.501 19.309,70.112L0,161.228Z" style="fill:white;fill-rule:nonzero;"/>
                </g>
                <g transform="matrix(1,0,0,1,962.1394,566.7962)">
                    <path d="M0,-101.616C-6.551,-101.616 -12.362,-100.653 -17.444,-98.737C-22.525,-96.816 -26.985,-94.332 -30.822,-91.286C-34.664,-88.237 -37.825,-84.849 -40.306,-81.124C-42.794,-77.398 -44.599,-73.84 -45.727,-70.454L30.825,-70.454C31.046,-73.84 30.936,-77.398 30.485,-81.124C30.029,-84.849 28.734,-88.237 26.59,-91.286C24.441,-94.332 21.283,-96.816 17.106,-98.737C12.925,-100.653 7.225,-101.616 0,-101.616M-93.486,-52.164C-90.777,-64.808 -86.828,-76.603 -81.63,-87.558C-76.438,-98.509 -69.833,-108.051 -61.815,-116.181C-53.803,-124.311 -44.259,-130.687 -33.194,-135.317C-22.132,-139.943 -9.372,-142.261 5.081,-142.261C16.82,-142.261 27.49,-139.943 37.09,-135.317C46.685,-130.687 54.587,-124.48 60.801,-116.688C67.01,-108.897 71.3,-99.753 73.672,-89.254C76.042,-78.752 75.984,-67.745 73.503,-56.227L70.454,-40.985C69.777,-38.497 68.363,-36.355 66.221,-34.55C64.073,-32.739 61.759,-31.839 59.277,-31.839L-53.854,-31.839C-54.987,-26.644 -54.871,-22.069 -53.517,-18.123C-52.161,-14.167 -49.959,-10.84 -46.913,-8.13C-43.864,-5.421 -40.136,-3.389 -35.734,-2.033C-31.329,-0.677 -26.646,0 -21.676,0C-14.453,0 -8.414,-0.73 -3.556,-2.203C1.298,-3.668 5.421,-5.53 8.807,-7.791C11.518,-9.595 13.772,-10.84 15.581,-11.516C17.385,-12.195 19.646,-12.532 22.357,-12.532L49.454,-12.532C51.936,-12.532 53.91,-11.628 55.382,-9.823C56.847,-8.014 57.245,-5.87 56.566,-3.389C55.661,-0.223 53.35,3.842 49.624,8.806C45.896,13.776 40.589,18.629 33.704,23.371C26.813,28.113 18.344,32.178 8.3,35.564C-1.751,38.952 -13.548,40.645 -27.097,40.645C-38.164,40.645 -48.382,38.327 -57.75,33.701C-67.124,29.076 -74.914,22.694 -81.121,14.564C-87.335,6.434 -91.681,-3.33 -94.162,-14.735C-96.651,-26.134 -96.423,-38.615 -93.486,-52.164" style="fill:white;fill-rule:nonzero;"/>
                </g>
                <g transform="matrix(1,0,0,1,1163.3337,563.4074)">
                    <path d="M0,-94.839C-13.548,-94.839 -23.939,-91.844 -31.162,-85.865C-38.392,-79.879 -43.473,-70.114 -46.406,-56.566L-65.373,31.502C-65.828,33.99 -67.126,36.132 -69.268,37.939C-71.417,39.748 -73.73,40.648 -76.212,40.648L-101.955,40.648C-104.441,40.648 -106.416,39.748 -107.883,37.939C-109.353,36.132 -109.862,33.99 -109.406,31.502L-75.875,-126.34C-75.423,-128.824 -74.068,-130.966 -71.81,-132.777C-69.554,-134.582 -67.184,-135.487 -64.696,-135.487L-38.952,-135.487C-36.471,-135.487 -34.55,-134.582 -33.194,-132.777C-31.841,-130.966 -31.39,-128.824 -31.841,-126.34L-33.534,-118.55C-30.825,-121.482 -28.113,-124.022 -25.404,-126.171C-22.695,-128.315 -19.704,-130.066 -16.427,-131.422C-13.158,-132.777 -9.544,-133.794 -5.591,-134.47C-1.642,-135.147 3.049,-135.487 8.467,-135.487L30.483,-135.487C32.967,-135.487 34.887,-134.582 36.243,-132.777C37.597,-130.966 38.048,-128.824 37.597,-126.34L32.855,-103.985C32.399,-101.497 31.104,-99.355 28.96,-97.551C26.811,-95.739 24.499,-94.839 22.016,-94.839L0,-94.839Z" style="fill:white;fill-rule:nonzero;"/>
                </g>
                <g transform="matrix(1,0,0,1,1249.0314,527.8436)">
                    <path d="M0,-23.711C-1.133,-20.323 -2.149,-16.369 -3.049,-11.856C-3.953,-7.335 -4.632,-3.388 -5.081,-0C-5.758,7.002 -5.367,12.988 -3.895,17.951C-2.43,22.92 -0.17,26.927 2.879,29.976C5.928,33.025 9.537,35.285 13.718,36.75C17.892,38.222 22.355,38.952 27.097,38.952C38.157,38.952 46.515,37.206 52.161,33.701C57.803,30.204 62.884,25.86 67.405,20.662C69.21,18.63 71.242,16.597 73.5,14.565C75.756,12.532 78.126,11.516 80.614,11.516L106.695,11.516C109.178,11.516 111.211,12.421 112.792,14.225C114.369,16.037 114.708,18.179 113.808,20.662C112.453,25.404 109.967,31.162 106.357,37.936C102.741,44.71 97.381,51.203 90.267,57.412C83.153,63.626 74.01,68.875 62.831,73.163C51.654,77.449 37.936,79.598 21.676,79.598C10.16,79.598 -0.286,77.507 -9.656,73.333C-19.027,69.156 -26.876,63.51 -33.194,56.396C-39.52,49.282 -44.15,41.043 -47.082,31.669C-50.02,22.302 -50.808,12.421 -49.454,2.032C-49.003,-2.033 -48.215,-6.546 -47.082,-11.516C-45.955,-16.481 -44.829,-21.111 -43.696,-25.404C-40.764,-35.787 -36.641,-45.727 -31.332,-55.212C-26.03,-64.696 -19.425,-72.993 -11.518,-80.107C-3.616,-87.221 5.758,-92.863 16.597,-97.044C27.434,-101.218 39.852,-103.309 53.854,-103.309C67.626,-103.309 79.312,-101.16 88.914,-96.874C98.509,-92.581 106.299,-87.332 112.285,-81.123C118.264,-74.91 122.445,-68.421 124.817,-61.647C127.187,-54.873 128.034,-49.115 127.357,-44.373C126.901,-41.885 125.548,-39.741 123.292,-37.936C121.031,-36.127 118.662,-35.227 116.18,-35.227L91.453,-35.227C88.965,-35.227 87.102,-36.243 85.865,-38.276C84.621,-40.308 83.435,-42.341 82.307,-44.373C81.174,-47.082 79.821,-49.506 78.242,-51.654C76.661,-53.799 74.628,-55.719 72.147,-57.412C69.658,-59.108 66.556,-60.403 62.831,-61.308C59.105,-62.208 54.417,-62.663 48.775,-62.663C44.031,-62.663 39.29,-61.929 34.548,-60.461C29.806,-58.991 25.234,-56.736 20.83,-53.687C16.427,-50.638 12.416,-46.627 8.807,-41.662C5.191,-36.692 2.253,-30.708 0,-23.711" style="fill:white;fill-rule:nonzero;"/>
                </g>
                <g transform="matrix(1,0,0,1,1474.6157,604.0554)">
                    <path d="M0,-240.491C2.481,-240.491 4.456,-239.586 5.928,-237.782C7.393,-235.97 7.902,-233.828 7.451,-231.345L1.693,-204.925C1.24,-202.439 -0.116,-200.294 -2.372,-198.49C-4.63,-196.681 -7.002,-195.781 -9.483,-195.781L-38.613,-195.781C-41.101,-195.781 -43.017,-196.681 -44.373,-198.49C-45.727,-200.294 -46.182,-202.439 -45.727,-204.925L-39.969,-231.345C-39.52,-233.828 -38.222,-235.97 -36.073,-237.782C-33.929,-239.586 -31.618,-240.491 -29.129,-240.491L0,-240.491ZM-41.662,-9.146C-42.117,-6.658 -43.415,-4.516 -45.557,-2.709C-47.706,-0.9 -50.02,0 -52.501,0L-78.244,0C-80.73,0 -82.705,-0.9 -84.172,-2.709C-85.642,-4.516 -86.151,-6.658 -85.695,-9.146L-52.164,-166.988C-51.713,-169.472 -50.357,-171.614 -48.099,-173.425C-45.843,-175.23 -43.473,-176.135 -40.985,-176.135L-15.241,-176.135C-12.76,-176.135 -10.839,-175.23 -9.483,-173.425C-8.13,-171.614 -7.679,-169.472 -8.13,-166.988L-41.662,-9.146Z" style="fill:white;fill-rule:nonzero;"/>
                </g>
                <g transform="matrix(1,0,0,1,1549.13,427.2447)">
                    <path d="M0,113.131C-1.356,120.133 -1.186,125.721 0.507,129.898C2.2,134.079 6.995,136.163 14.902,136.163L42.338,136.163C44.822,136.163 46.743,137.07 48.096,138.874C49.452,140.684 49.901,142.828 49.452,145.309L44.71,167.664C44.255,170.153 42.959,172.294 40.815,174.101C38.666,175.911 36.352,176.811 33.871,176.811L12.193,176.811C-9.035,176.811 -24.785,171.339 -35.057,160.383C-45.336,149.432 -48.327,134.021 -44.034,114.147L-28.453,41.324L-50.808,41.324C-53.296,41.324 -55.271,40.424 -56.736,38.612C-58.208,36.808 -58.715,34.666 -58.261,32.177L-53.517,9.822C-53.068,7.339 -51.713,5.197 -49.454,3.385C-47.199,1.581 -44.829,0.676 -42.341,0.676L-19.986,0.676L-8.13,-54.534C-7.681,-57.018 -6.384,-59.159 -4.235,-60.971C-2.091,-62.776 0.221,-63.68 2.709,-63.68L28.453,-63.68C30.934,-63.68 32.908,-62.776 34.378,-60.971C35.845,-59.159 36.352,-57.018 35.904,-54.534L24.048,0.676L67.742,0.676C70.226,0.676 72.147,1.581 73.5,3.385C74.856,5.197 75.305,7.339 74.856,9.822L70.114,32.177C69.658,34.666 68.363,36.808 66.219,38.612C64.07,40.424 61.756,41.324 59.275,41.324L15.581,41.324L0,113.131Z" style="fill:white;fill-rule:nonzero;"/>
                </g>
                <g transform="matrix(1,0,0,1,1679.1984,525.271)">
                    <path d="M0,65.573L-33.194,-85.834C-33.873,-88.992 -33.025,-91.702 -30.655,-93.962C-28.283,-96.218 -25.632,-97.35 -22.695,-97.35L1.354,-97.35C6.546,-97.35 9.707,-94.641 10.839,-89.22L33.194,14.088L99.921,-89.22C101.048,-91.025 102.8,-92.829 105.172,-94.641C107.541,-96.446 110.083,-97.35 112.792,-97.35L140.906,-97.35C144.066,-97.571 146.326,-96.334 147.68,-93.625C149.035,-90.913 148.808,-88.088 147.003,-85.155L-8.432,156.03C-9.565,157.835 -11.2,159.469 -13.344,160.942C-15.493,162.407 -17.916,163.144 -20.625,163.144L-49.078,163.144C-52.243,163.144 -54.499,161.841 -55.852,159.249C-57.208,156.649 -57.096,154.109 -55.515,151.628L0,65.573Z" style="fill:white;fill-rule:nonzero;"/>
                </g>
                <g transform="matrix(1,0,0,1,473.1375,710.2904)">
                    <path d="M0,62.849L-0.512,46.341C-0.691,40.586 3.673,35.672 9.417,35.264C25.742,34.104 42.04,31.391 57.998,27.17C85.883,19.79 111.975,8.075 135.695,-7.705C140.468,-10.881 146.917,-9.603 150.277,-4.958L159.95,8.41C163.56,13.401 162.257,20.376 157.133,23.795C129.841,42.008 99.821,55.515 67.742,64.002C49.333,68.873 30.519,71.991 11.662,73.302C5.503,73.73 0.191,69.02 0,62.849" style="fill:rgb(240,126,5);fill-rule:nonzero;"/>
                </g>
                <g transform="matrix(1,0,0,1,411.5176,682.8254)">
                    <path d="M0,96.753C-51.325,87.512 -99,65.165 -139.065,31.567C-143.795,27.6 -144.366,20.529 -140.226,15.95L-129.149,3.697C-125.287,-0.574 -118.726,-1.094 -114.308,2.599C-79.493,31.712 -38.125,51.108 6.396,59.191C12.06,60.219 15.861,65.589 15.054,71.289L12.74,87.642C11.875,93.756 6.077,97.847 0,96.753" style="fill:rgb(240,126,5);fill-rule:nonzero;"/>
                </g>
                <g transform="matrix(1,0,0,1,237.9284,507.533)">
                    <path d="M0,155.458C-4.863,159.271 -11.878,158.198 -15.506,153.195C-37.047,123.48 -52.756,90.294 -62.257,54.39C-66.134,39.738 -68.908,24.78 -70.536,9.784C-71.202,3.653 -66.692,-1.827 -60.54,-2.257L-44.067,-3.41C-38.316,-3.813 -33.242,0.368 -32.611,6.098C-31.184,19.051 -28.777,31.975 -25.425,44.644C-17.162,75.864 -3.533,104.715 15.14,130.552C18.509,135.214 17.523,141.717 12.996,145.266L0,155.458Z" style="fill:rgb(240,126,5);fill-rule:nonzero;"/>
                </g>
                <g transform="matrix(1,0,0,1,194.5899,297.3417)">
                    <path d="M0,160.665L-16.432,158.988C-22.575,158.36 -26.889,152.726 -26.031,146.61C-18.79,94.987 1.706,46.487 33.753,5.137C37.535,0.258 44.579,-0.585 49.314,3.376L61.984,13.973C66.401,17.667 67.173,24.204 63.652,28.76C35.886,64.687 18.099,106.768 11.753,151.544C10.945,157.243 5.727,161.25 0,160.665" style="fill:rgb(240,156,14);fill-rule:nonzero;"/>
                </g>
                <g transform="matrix(1,0,0,1,289.05,194.1418)">
                    <path d="M0,84.435L-10.68,71.856C-14.67,67.155 -13.897,60.102 -9.051,56.291C22.911,31.152 59.204,13.101 98.99,2.573C109.909,-0.317 121.03,-2.601 132.179,-4.248C138.27,-5.148 143.906,-0.842 144.574,5.278L146.366,21.694C146.993,27.434 142.996,32.659 137.285,33.513C127.698,34.945 118.134,36.919 108.736,39.405C74.124,48.564 42.556,64.236 14.753,86.045C10.242,89.583 3.71,88.805 0,84.435" style="fill:rgb(240,156,14);fill-rule:nonzero;"/>
                </g>
                <g transform="matrix(1,0,0,1,615.7919,190.9391)">
                    <path d="M0,82.359C-36.99,55.979 -79.726,39.824 -124.698,35.222C-130.424,34.636 -134.63,29.578 -134.268,23.833L-133.232,7.349C-132.845,1.186 -127.381,-3.344 -121.237,-2.724C-69.381,2.506 -20.119,21.122 22.454,51.576C27.475,55.168 28.588,62.173 24.813,67.057L14.712,80.123C11.19,84.679 4.688,85.703 0,82.359" style="fill:rgb(240,156,14);fill-rule:nonzero;"/>
                </g>
            </g>
        </g>
    </g>
</svg>
