<?xml version="1.0" encoding="UTF-8" standalone="no"?>
<!DOCTYPE svg PUBLIC "-//W3C//DTD SVG 1.1//EN" "http://www.w3.org/Graphics/SVG/1.1/DTD/svg11.dtd">
<svg width="100%" height="100%" viewBox="0 0 300 108" version="1.1" xmlns="http://www.w3.org/2000/svg" xmlns:xlink="http://www.w3.org/1999/xlink" xml:space="preserve" xmlns:serif="http://www.serif.com/" style="fill-rule:evenodd;clip-rule:evenodd;stroke-linejoin:round;stroke-miterlimit:2;">
    <g transform="matrix(1,0,0,1,-19951.535741,-391.992141)">
        <g transform="matrix(4.166667,0,0,4.166667,19602.9375,0)">
            <g transform="matrix(0.086725,0,0,0.086725,76.40786,85.919197)">
                <g transform="matrix(1,0,0,1,378.6341,334.8566)">
                    <path d="M0,-0.22L2.646,-0.22L2.646,7.304C0.716,8.93 -1.957,9.756 -4.658,9.756C-10.582,9.756 -14.936,5.594 -14.936,-0.11C-14.936,-5.815 -10.582,-9.976 -4.602,-9.976C-1.544,-9.976 1.046,-8.956 2.81,-6.999L1.101,-5.29C-0.497,-6.833 -2.316,-7.523 -4.492,-7.523C-8.957,-7.523 -12.182,-4.409 -12.182,-0.11C-12.182,4.134 -8.957,7.304 -4.52,7.304C-2.894,7.304 -1.379,6.945 0,6.063L0,-0.22Z" style="fill:rgb(21,70,96);fill-rule:nonzero;"/>
                </g>
                <g transform="matrix(1,0,0,1,402.6212,327.499)">
                    <path d="M0,14.496L0,16.893L-13.999,16.893L-13.999,-2.397L-0.386,-2.397L-0.386,-0L-11.243,-0L-11.243,5.925L-1.571,5.925L-1.571,8.268L-11.243,8.268L-11.243,14.496L0,14.496Z" style="fill:rgb(21,70,96);fill-rule:nonzero;"/>
                </g>
                <g transform="matrix(1,0,0,1,425.7543,344.3927)">
                    <path d="M0,-19.291L0,0L-2.26,0L-13.834,-14.386L-13.834,0L-16.59,0L-16.59,-19.291L-14.331,-19.291L-2.756,-4.905L-2.756,-19.291L0,-19.291Z" style="fill:rgb(21,70,96);fill-rule:nonzero;"/>
                </g>
                <g transform="matrix(1,0,0,1,447.6201,327.499)">
                    <path d="M0,14.496L0,16.893L-13.999,16.893L-13.999,-2.397L-0.386,-2.397L-0.386,-0L-11.243,-0L-11.243,5.925L-1.571,5.925L-1.571,8.268L-11.243,8.268L-11.243,14.496L0,14.496Z" style="fill:rgb(21,70,96);fill-rule:nonzero;"/>
                </g>
                <g transform="matrix(1,0,0,1,466.9773,337.6684)">
                    <path d="M0,-5.843C0,-8.599 -1.846,-10.17 -5.374,-10.17L-10.058,-10.17L-10.058,-1.489L-5.374,-1.489C-1.846,-1.489 0,-3.087 0,-5.843M0.083,6.724L-4.078,0.799C-4.464,0.827 -4.877,0.854 -5.291,0.854L-10.058,0.854L-10.058,6.724L-12.814,6.724L-12.814,-12.567L-5.291,-12.567C-0.276,-12.567 2.756,-10.032 2.756,-5.843C2.756,-2.866 1.213,-0.718 -1.488,0.247L3.087,6.724L0.083,6.724Z" style="fill:rgb(21,70,96);fill-rule:nonzero;"/>
                </g>
                <g transform="matrix(1,0,0,1,487.6027,332.1288)">
                    <path d="M0,5.236L-4.161,-4.216L-8.323,5.236L0,5.236ZM0.965,7.44L-9.288,7.44L-11.409,12.263L-14.248,12.263L-5.512,-7.027L-2.783,-7.027L5.98,12.263L3.086,12.263L0.965,7.44Z" style="fill:rgb(21,70,96);fill-rule:nonzero;"/>
                </g>
                <g transform="matrix(1,0,0,1,511.8429,341.9949)">
                    <path d="M0,-14.496L-6.613,-14.496L-6.613,-16.893L9.343,-16.893L9.343,-14.496L2.728,-14.496L2.728,2.397L0,2.397L0,-14.496Z" style="fill:rgb(21,70,96);fill-rule:nonzero;"/>
                </g>
                <g transform="matrix(1,0,0,1,525.7422,333.6461)">
                    <path d="M0,2.423L0,-8.544L2.756,-8.544L2.756,2.314C2.756,6.585 4.713,8.514 8.185,8.514C11.657,8.514 13.641,6.585 13.641,2.314L13.641,-8.544L16.314,-8.544L16.314,2.423C16.314,8.018 13.255,10.967 8.157,10.967C3.086,10.967 0,8.018 0,2.423" style="fill:rgb(21,70,96);fill-rule:nonzero;"/>
                </g>
                <g transform="matrix(1,0,0,1,573.2694,327.499)">
                    <path d="M0,14.496L0,16.893L-13.999,16.893L-13.999,-2.397L-0.386,-2.397L-0.386,-0L-11.243,-0L-11.243,5.925L-1.571,5.925L-1.571,8.268L-11.243,8.268L-11.243,14.496L0,14.496Z" style="fill:rgb(21,70,96);fill-rule:nonzero;"/>
                </g>
                <g transform="matrix(1,0,0,1,579.8126,344.3927)">
                    <path d="M0,-19.291L2.756,-19.291L2.756,-2.398L13.2,-2.398L13.2,0L0,0L0,-19.291Z" style="fill:rgb(21,70,96);fill-rule:nonzero;"/>
                </g>
                <g transform="matrix(1,0,0,1,612.2574,327.499)">
                    <path d="M0,14.496L0,16.893L-13.999,16.893L-13.999,-2.397L-0.386,-2.397L-0.386,-0L-11.243,-0L-11.243,5.925L-1.571,5.925L-1.571,8.268L-11.243,8.268L-11.243,14.496L0,14.496Z" style="fill:rgb(21,70,96);fill-rule:nonzero;"/>
                </g>
                <g transform="matrix(1,0,0,1,617.1461,334.7469)">
                    <path d="M0,0C0,-5.705 4.355,-9.866 10.225,-9.866C13.202,-9.866 15.792,-8.846 17.556,-6.862L15.764,-5.126C14.275,-6.696 12.456,-7.414 10.335,-7.414C5.981,-7.414 2.756,-4.271 2.756,0C2.756,4.271 5.981,7.414 10.335,7.414C12.456,7.414 14.275,6.669 15.764,5.098L17.556,6.834C15.792,8.819 13.202,9.866 10.197,9.866C4.355,9.866 0,5.704 0,0" style="fill:rgb(21,70,96);fill-rule:nonzero;"/>
                </g>
                <g transform="matrix(1,0,0,1,644.3297,341.9949)">
                    <path d="M0,-14.496L-6.613,-14.496L-6.613,-16.893L9.343,-16.893L9.343,-14.496L2.728,-14.496L2.728,2.397L0,2.397L0,-14.496Z" style="fill:rgb(21,70,96);fill-rule:nonzero;"/>
                </g>
                <g transform="matrix(1,0,0,1,671.5673,337.6684)">
                    <path d="M0,-5.843C0,-8.599 -1.846,-10.17 -5.374,-10.17L-10.058,-10.17L-10.058,-1.489L-5.374,-1.489C-1.846,-1.489 0,-3.087 0,-5.843M0.083,6.724L-4.078,0.799C-4.464,0.827 -4.877,0.854 -5.291,0.854L-10.058,0.854L-10.058,6.724L-12.814,6.724L-12.814,-12.567L-5.291,-12.567C-0.275,-12.567 2.756,-10.032 2.756,-5.843C2.756,-2.866 1.213,-0.718 -1.488,0.247L3.087,6.724L0.083,6.724Z" style="fill:rgb(21,70,96);fill-rule:nonzero;"/>
                </g>
                <g transform="matrix(1,0,0,1,0,183.607)">
                    <rect x="680.866" y="141.495" width="2.756" height="19.291" style="fill:rgb(21,70,96);"/>
                </g>
                <g transform="matrix(1,0,0,1,689.9115,334.7469)">
                    <path d="M0,0C0,-5.705 4.354,-9.866 10.224,-9.866C13.2,-9.866 15.791,-8.846 17.554,-6.862L15.763,-5.126C14.274,-6.696 12.455,-7.414 10.334,-7.414C5.98,-7.414 2.755,-4.271 2.755,0C2.755,4.271 5.98,7.414 10.334,7.414C12.455,7.414 14.274,6.669 15.763,5.098L17.554,6.834C15.791,8.819 13.2,9.866 10.196,9.866C4.354,9.866 0,5.704 0,0" style="fill:rgb(21,70,96);fill-rule:nonzero;"/>
                </g>
                <g transform="matrix(1,0,0,1,0,183.607)">
                    <rect x="713.485" y="141.495" width="2.756" height="19.291" style="fill:rgb(21,70,96);"/>
                </g>
                <g transform="matrix(1,0,0,1,732.0648,327.499)">
                    <path d="M0,14.496C4.767,14.496 7.826,11.574 7.826,7.248C7.826,2.921 4.767,-0 0,-0L-5.208,-0L-5.208,14.496L0,14.496ZM-7.964,-2.397L0.164,-2.397C6.365,-2.397 10.582,1.515 10.582,7.248C10.582,12.979 6.365,16.893 0.164,16.893L-7.964,16.893L-7.964,-2.397Z" style="fill:rgb(21,70,96);fill-rule:nonzero;"/>
                </g>
                <g transform="matrix(1,0,0,1,759.9945,332.1288)">
                    <path d="M0,5.236L-4.161,-4.216L-8.323,5.236L0,5.236ZM0.965,7.44L-9.288,7.44L-11.409,12.263L-14.248,12.263L-5.512,-7.027L-2.783,-7.027L5.98,12.263L3.086,12.263L0.965,7.44Z" style="fill:rgb(21,70,96);fill-rule:nonzero;"/>
                </g>
                <g transform="matrix(1,0,0,1,778.8838,327.499)">
                    <path d="M0,14.496C4.767,14.496 7.826,11.574 7.826,7.248C7.826,2.921 4.767,-0 0,-0L-5.208,-0L-5.208,14.496L0,14.496ZM-7.964,-2.397L0.166,-2.397C6.365,-2.397 10.582,1.515 10.582,7.248C10.582,12.979 6.365,16.893 0.166,16.893L-7.964,16.893L-7.964,-2.397Z" style="fill:rgb(21,70,96);fill-rule:nonzero;"/>
                </g>
                <g transform="matrix(1,0,0,1,305.2792,204.6458)">
                    <path d="M0,76.211C1.241,76.211 2.228,76.663 2.964,77.566C3.696,78.471 3.895,79.542 3.556,80.784L1.016,92.808C0.788,94.052 0.14,95.123 -0.931,96.027C-2.006,96.931 -3.163,97.381 -4.403,97.381L-78.752,97.381C-79.997,97.381 -80.983,96.931 -81.716,96.027C-82.452,95.123 -82.706,94.052 -82.478,92.808L-59.106,-16.598C-58.882,-17.839 -58.233,-18.911 -57.159,-19.815C-56.087,-20.718 -54.931,-21.17 -53.687,-21.17L19.307,-21.17C20.547,-21.17 21.534,-20.718 22.27,-19.815C23.003,-18.911 23.258,-17.839 23.032,-16.598L20.323,-4.573C20.095,-3.33 19.447,-2.258 18.375,-1.355C17.301,-0.451 16.145,-0.001 14.903,-0.001L-39.8,-0.001L-45.558,26.928L5.42,26.928C6.66,26.928 7.621,27.38 8.299,28.282C8.975,29.188 9.201,30.259 8.975,31.501L6.435,43.525C6.208,44.769 5.53,45.84 4.403,46.743C3.273,47.648 2.087,48.098 0.847,48.098L-50.131,48.098L-56.058,76.211L0,76.211Z" style="fill:rgb(21,70,96);fill-rule:nonzero;"/>
                </g>
                <g transform="matrix(1,0,0,1,408.4159,216.8401)">
                    <path d="M0,80.614C-0.227,81.858 -0.876,82.929 -1.948,83.833C-3.022,84.737 -4.178,85.187 -5.418,85.187L-18.29,85.187C-19.534,85.187 -20.521,84.737 -21.254,83.833C-21.99,82.929 -22.244,81.858 -22.016,80.614L-12.871,37.597C-11.404,30.822 -11.828,25.403 -14.141,21.339C-16.457,17.274 -20.889,15.241 -27.435,15.241C-33.421,15.241 -38.558,17.274 -42.848,21.339C-47.139,25.403 -50.018,30.822 -51.485,37.597L-60.63,80.614C-60.858,81.858 -61.506,82.929 -62.577,83.833C-63.652,84.737 -64.809,85.187 -66.049,85.187L-78.921,85.187C-80.164,85.187 -81.151,84.737 -81.885,83.833C-82.62,82.929 -82.874,81.858 -82.646,80.614L-65.881,1.693C-65.655,0.451 -64.977,-0.62 -63.848,-1.526C-62.72,-2.428 -61.536,-2.88 -60.291,-2.88L-47.42,-2.88C-46.179,-2.88 -45.219,-2.428 -44.541,-1.526C-43.864,-0.62 -43.638,0.451 -43.864,1.693L-44.71,5.588C-41.776,2.429 -38.248,-0.056 -34.126,-1.864C-30.005,-3.669 -25.234,-4.573 -19.815,-4.573C-13.831,-4.573 -8.695,-3.499 -4.403,-1.356C-0.113,0.791 3.245,3.67 5.674,7.281C8.101,10.896 9.654,15.101 10.331,19.899C11.009,24.699 10.781,29.75 9.654,35.056L0,80.614Z" style="fill:rgb(21,70,96);fill-rule:nonzero;"/>
                </g>
                <g transform="matrix(1,0,0,1,481.0697,283.3976)">
                    <path d="M0,-50.808C-3.276,-50.808 -6.181,-50.327 -8.722,-49.369C-11.262,-48.408 -13.493,-47.166 -15.411,-45.643C-17.332,-44.119 -18.912,-42.424 -20.153,-40.562C-21.397,-38.699 -22.299,-36.92 -22.863,-35.227L15.412,-35.227C15.523,-36.92 15.468,-38.699 15.243,-40.562C15.015,-42.424 14.367,-44.119 13.295,-45.643C12.221,-47.166 10.641,-48.408 8.553,-49.369C6.463,-50.327 3.613,-50.808 0,-50.808M-46.743,-26.082C-45.388,-32.404 -43.414,-38.301 -40.815,-43.779C-38.219,-49.255 -34.917,-54.025 -30.907,-58.09C-26.902,-62.155 -22.13,-65.344 -16.597,-67.659C-11.066,-69.971 -4.686,-71.131 2.541,-71.131C8.41,-71.131 13.745,-69.971 18.545,-67.659C23.342,-65.344 27.293,-62.24 30.4,-58.344C33.505,-54.449 35.65,-49.877 36.836,-44.627C38.021,-39.376 37.992,-33.872 36.751,-28.113L35.227,-20.493C34.889,-19.248 34.181,-18.178 33.111,-17.275C32.036,-16.369 30.879,-15.919 29.639,-15.919L-26.927,-15.919C-27.493,-13.322 -27.435,-11.035 -26.759,-9.062C-26.081,-7.084 -24.98,-5.42 -23.456,-4.065C-21.932,-2.71 -20.068,-1.694 -17.867,-1.016C-15.665,-0.339 -13.323,0 -10.838,0C-7.227,0 -4.207,-0.365 -1.778,-1.101C0.649,-1.834 2.71,-2.765 4.403,-3.895C5.759,-4.798 6.886,-5.42 7.79,-5.758C8.693,-6.098 9.823,-6.266 11.179,-6.266L24.727,-6.266C25.968,-6.266 26.955,-5.814 27.691,-4.912C28.424,-4.007 28.622,-2.935 28.283,-1.694C27.831,-0.112 26.675,1.921 24.812,4.403C22.948,6.888 20.295,9.315 16.852,11.686C13.407,14.057 9.172,16.089 4.15,17.782C-0.876,19.476 -6.774,20.323 -13.548,20.323C-19.082,20.323 -24.191,19.163 -28.875,16.851C-33.562,14.538 -37.457,11.347 -40.561,7.282C-43.667,3.217 -45.841,-1.665 -47.081,-7.367C-48.325,-13.067 -48.211,-19.308 -46.743,-26.082" style="fill:rgb(21,70,96);fill-rule:nonzero;"/>
                </g>
                <g transform="matrix(1,0,0,1,581.6669,281.7037)">
                    <path d="M0,-47.42C-6.774,-47.42 -11.969,-45.922 -15.581,-42.933C-19.196,-39.94 -21.737,-35.057 -23.203,-28.283L-32.686,15.75C-32.914,16.995 -33.563,18.065 -34.634,18.969C-35.708,19.874 -36.865,20.324 -38.106,20.324L-50.978,20.324C-52.221,20.324 -53.208,19.874 -53.942,18.969C-54.676,18.065 -54.931,16.995 -54.703,15.75L-37.937,-63.171C-37.712,-64.413 -37.034,-65.483 -35.905,-66.389C-34.777,-67.291 -33.592,-67.744 -32.348,-67.744L-19.476,-67.744C-18.236,-67.744 -17.275,-67.291 -16.597,-66.389C-15.921,-65.483 -15.695,-64.413 -15.921,-63.171L-16.767,-59.275C-15.412,-60.742 -14.057,-62.011 -12.702,-63.086C-11.347,-64.158 -9.852,-65.033 -8.214,-65.711C-6.579,-66.389 -4.772,-66.897 -2.795,-67.236C-0.821,-67.574 1.524,-67.744 4.234,-67.744L15.241,-67.744C16.483,-67.744 17.444,-67.291 18.122,-66.389C18.798,-65.483 19.024,-64.413 18.798,-63.171L16.427,-51.993C16.2,-50.749 15.552,-49.678 14.48,-48.776C13.405,-47.87 12.25,-47.42 11.008,-47.42L0,-47.42Z" style="fill:rgb(21,70,96);fill-rule:nonzero;"/>
                </g>
                <g transform="matrix(1,0,0,1,624.5156,263.9208)">
                    <path d="M0,-11.855C-0.566,-10.161 -1.074,-8.184 -1.524,-5.927C-1.977,-3.667 -2.316,-1.694 -2.541,0C-2.879,3.502 -2.684,6.494 -1.948,8.976C-1.215,11.461 -0.085,13.464 1.44,14.988C2.964,16.513 4.769,17.643 6.859,18.376C8.946,19.112 11.178,19.477 13.548,19.477C19.079,19.477 23.258,18.603 26.081,16.851C28.902,15.102 31.442,12.93 33.703,10.332C34.605,9.315 35.621,8.299 36.75,7.283C37.878,6.267 39.063,5.759 40.307,5.759L53.347,5.759C54.589,5.759 55.605,6.211 56.396,7.113C57.184,8.019 57.354,9.09 56.904,10.332C56.226,12.702 54.983,15.581 53.179,18.969C51.371,22.356 48.691,25.602 45.134,28.707C41.577,31.814 37.005,34.438 31.415,36.582C25.827,38.725 18.968,39.799 10.838,39.799C5.08,39.799 -0.143,38.754 -4.828,36.667C-9.514,34.579 -13.438,31.755 -16.597,28.199C-19.76,24.642 -22.075,20.522 -23.541,15.835C-25.01,11.151 -25.404,6.211 -24.727,1.017C-24.502,-1.016 -24.107,-3.273 -23.541,-5.757C-22.977,-8.24 -22.414,-10.555 -21.848,-12.701C-20.382,-17.893 -18.32,-22.863 -15.666,-27.606C-13.015,-32.347 -9.713,-36.496 -5.759,-40.053C-1.808,-43.61 2.879,-46.431 8.299,-48.521C13.717,-50.609 19.926,-51.654 26.927,-51.654C33.813,-51.654 39.656,-50.579 44.457,-48.437C49.255,-46.29 53.15,-43.666 56.143,-40.561C59.132,-37.454 61.223,-34.21 62.409,-30.823C63.594,-27.436 64.017,-24.557 63.678,-22.186C63.451,-20.942 62.774,-19.87 61.646,-18.968C60.516,-18.063 59.331,-17.613 58.09,-17.613L45.727,-17.613C44.483,-17.613 43.551,-18.121 42.933,-19.137C42.311,-20.154 41.718,-21.17 41.154,-22.186C40.587,-23.541 39.911,-24.752 39.121,-25.827C38.33,-26.899 37.314,-27.859 36.073,-28.706C34.829,-29.553 33.278,-30.201 31.415,-30.653C29.553,-31.103 27.209,-31.331 24.388,-31.331C22.016,-31.331 19.645,-30.964 17.274,-30.23C14.903,-29.495 12.617,-28.367 10.415,-26.843C8.214,-25.319 6.208,-23.313 4.403,-20.83C2.595,-18.345 1.127,-15.354 0,-11.855" style="fill:rgb(21,70,96);fill-rule:nonzero;"/>
                </g>
                <g transform="matrix(1,0,0,1,737.3079,302.0267)">
                    <path d="M0,-120.245C1.241,-120.245 2.228,-119.793 2.964,-118.89C3.696,-117.985 3.951,-116.914 3.725,-115.672L0.846,-102.462C0.62,-101.219 -0.058,-100.147 -1.186,-99.244C-2.315,-98.34 -3.501,-97.89 -4.742,-97.89L-19.306,-97.89C-20.551,-97.89 -21.509,-98.34 -22.187,-99.244C-22.863,-100.147 -23.091,-101.219 -22.863,-102.462L-19.984,-115.672C-19.76,-116.914 -19.111,-117.985 -18.037,-118.89C-16.965,-119.793 -15.809,-120.245 -14.565,-120.245L0,-120.245ZM-20.831,-4.573C-21.059,-3.328 -21.708,-2.258 -22.778,-1.354C-23.853,-0.449 -25.01,0 -26.25,0L-39.122,0C-40.365,0 -41.352,-0.449 -42.086,-1.354C-42.821,-2.258 -43.076,-3.328 -42.848,-4.573L-26.082,-83.494C-25.856,-84.736 -25.178,-85.806 -24.049,-86.712C-22.922,-87.615 -21.737,-88.067 -20.492,-88.067L-7.621,-88.067C-6.38,-88.067 -5.42,-87.615 -4.742,-86.712C-4.065,-85.806 -3.839,-84.736 -4.065,-83.494L-20.831,-4.573Z" style="fill:rgb(21,70,96);fill-rule:nonzero;"/>
                </g>
                <g transform="matrix(1,0,0,1,774.5649,213.6213)">
                    <path d="M0,56.566C-0.678,60.067 -0.593,62.861 0.254,64.95C1.1,67.04 3.498,68.082 7.451,68.082L21.169,68.082C22.411,68.082 23.371,68.535 24.048,69.438C24.726,70.342 24.95,71.414 24.726,72.655L22.355,83.833C22.127,85.077 21.48,86.148 20.408,87.051C19.333,87.956 18.176,88.406 16.936,88.406L6.096,88.406C-4.517,88.406 -12.393,85.67 -17.529,80.192C-22.668,74.717 -24.163,67.011 -22.017,57.074L-14.226,20.662L-25.404,20.662C-26.648,20.662 -27.635,20.212 -28.368,19.307C-29.104,18.404 -29.357,17.333 -29.131,16.089L-26.759,4.912C-26.534,3.67 -25.856,2.599 -24.727,1.693C-23.599,0.791 -22.414,0.338 -21.17,0.338L-9.993,0.338L-4.065,-27.267C-3.841,-28.508 -3.192,-29.579 -2.117,-30.485C-1.045,-31.387 0.11,-31.84 1.355,-31.84L14.226,-31.84C15.467,-31.84 16.454,-31.387 17.189,-30.485C17.923,-29.579 18.176,-28.508 17.952,-27.267L12.024,0.338L33.871,0.338C35.113,0.338 36.073,0.791 36.75,1.693C37.428,2.599 37.652,3.67 37.428,4.912L35.057,16.089C34.829,17.333 34.182,18.404 33.11,19.307C32.035,20.212 30.878,20.662 29.638,20.662L7.791,20.662L0,56.566Z" style="fill:rgb(21,70,96);fill-rule:nonzero;"/>
                </g>
                <g transform="matrix(1,0,0,1,839.5992,262.6345)">
                    <path d="M0,32.787L-16.597,-42.917C-16.937,-44.496 -16.512,-45.85 -15.328,-46.98C-14.141,-48.108 -12.816,-48.675 -11.347,-48.675L0.677,-48.675C3.273,-48.675 4.853,-47.32 5.42,-44.61L16.597,7.045L49.96,-44.61C50.524,-45.512 51.4,-46.414 52.586,-47.32C53.771,-48.222 55.041,-48.675 56.396,-48.675L70.453,-48.675C72.033,-48.785 73.163,-48.166 73.84,-46.812C74.518,-45.456 74.404,-44.043 73.501,-42.577L-4.216,78.016C-4.782,78.918 -5.6,79.735 -6.672,80.471C-7.746,81.204 -8.958,81.572 -10.313,81.572L-24.539,81.572C-26.121,81.572 -27.249,80.921 -27.926,79.625C-28.604,78.325 -28.548,77.055 -27.757,75.814L0,32.787Z" style="fill:rgb(21,70,96);fill-rule:nonzero;"/>
                </g>
                <g transform="matrix(1,0,0,1,236.5688,355.1442)">
                    <path d="M0,31.425L-0.256,23.171C-0.345,20.294 1.837,17.837 4.708,17.633C12.871,17.053 21.02,15.696 28.999,13.586C42.942,9.895 55.988,4.038 67.848,-3.852C70.234,-5.44 73.458,-4.801 75.139,-2.479L79.975,4.206C81.78,6.701 81.129,10.189 78.567,11.898C64.92,21.004 49.91,27.758 33.871,32.001C24.667,34.437 15.259,35.996 5.831,36.651C2.752,36.865 0.096,34.51 0,31.425" style="fill:rgb(240,126,5);fill-rule:nonzero;"/>
                </g>
                <g transform="matrix(1,0,0,1,205.7588,341.4117)">
                    <path d="M0,48.377C-25.663,43.756 -49.5,32.583 -69.532,15.784C-71.898,13.801 -72.183,10.265 -70.113,7.975L-64.574,1.849C-62.643,-0.287 -59.363,-0.547 -57.154,1.3C-39.747,15.857 -19.062,25.554 3.198,29.596C6.03,30.11 7.931,32.795 7.527,35.645L6.37,43.821C5.937,46.878 3.039,48.924 0,48.377" style="fill:rgb(240,126,5);fill-rule:nonzero;"/>
                </g>
                <g transform="matrix(1,0,0,1,118.9642,253.767)">
                    <path d="M0,77.728C-2.431,79.635 -5.939,79.098 -7.753,76.596C-18.524,61.739 -26.378,45.146 -31.128,27.194C-33.067,19.868 -34.454,12.389 -35.268,4.891C-35.601,1.826 -33.346,-0.914 -30.27,-1.13L-22.033,-1.706C-19.158,-1.907 -16.621,0.183 -16.306,3.048C-15.592,9.525 -14.388,15.987 -12.713,22.321C-8.581,37.931 -1.767,52.357 7.57,65.275C9.255,67.606 8.761,70.857 6.498,72.632L0,77.728Z" style="fill:rgb(240,126,5);fill-rule:nonzero;"/>
                </g>
                <g transform="matrix(1,0,0,1,97.295,148.6699)">
                    <path d="M0,80.333L-8.216,79.494C-11.288,79.181 -13.445,76.363 -13.016,73.306C-9.395,47.494 0.853,23.244 16.877,2.569C18.768,0.129 22.289,-0.292 24.657,1.688L30.992,6.987C33.2,8.834 33.587,12.102 31.826,14.38C17.943,32.344 9.05,53.384 5.876,75.772C5.473,78.622 2.863,80.625 0,80.333" style="fill:rgb(240,156,14);fill-rule:nonzero;"/>
                </g>
                <g transform="matrix(1,0,0,1,144.525,97.0699)">
                    <path d="M0,42.218L-5.34,35.928C-7.335,33.578 -6.949,30.052 -4.525,28.146C11.456,15.577 29.602,6.551 49.495,1.287C54.954,-0.158 60.515,-1.3 66.089,-2.124C69.135,-2.574 71.953,-0.421 72.287,2.64L73.183,10.847C73.496,13.718 71.498,16.33 68.642,16.757C63.849,17.473 59.067,18.46 54.368,19.703C37.062,24.283 21.278,32.118 7.376,43.023C5.121,44.792 1.855,44.403 0,42.218" style="fill:rgb(240,156,14);fill-rule:nonzero;"/>
                </g>
                <g transform="matrix(1,0,0,1,307.8959,95.4685)">
                    <path d="M0,41.18C-18.495,27.99 -39.863,19.912 -62.349,17.612C-65.212,17.319 -67.315,14.79 -67.134,11.917L-66.616,3.675C-66.422,0.593 -63.691,-1.672 -60.618,-1.362C-34.691,1.253 -10.06,10.561 11.227,25.789C13.738,27.584 14.294,31.087 12.406,33.529L7.356,40.062C5.595,42.34 2.344,42.852 0,41.18" style="fill:rgb(240,156,14);fill-rule:nonzero;"/>
                </g>
            </g>
        </g>
    </g>
</svg>
